<svg xmlns="http://www.w3.org/2000/svg" width="86" height="68" fill="none" viewBox="0 0 86 68"><rect width="8" height="2" x="13" y="13" fill="#C4C4C4"/><rect width="8" height="2" x="13" y="17" fill="#C4C4C4"/><rect width="8" height="2" x="13" y="21" fill="#0078D4"/><rect width="8" height="2" x="13" y="25" fill="#C4C4C4"/><rect width="8" height="2" x="13" y="29" fill="#C4C4C4"/><rect width="85" height="67" x=".5" y=".5" stroke="#C4C4C4"/><path fill="#0078D4" fill-rule="evenodd" d="M75 11H11V57H75V11ZM9 9V59H77V9H9Z" clip-rule="evenodd"/><path fill="#0078D4" fill-rule="evenodd" d="M23 59V9H25V59H23Z" clip-rule="evenodd"/><path fill="#0078D4" fill-rule="evenodd" d="M62 59V9H64V59H62Z" clip-rule="evenodd"/><path fill="#5C2E91" fill-rule="evenodd" d="M31 16C29.8955 16 29 16.8954 29 18V26C29 27.1046 29.8955 28 31 28L51 28C52.1046 28 53 27.1046 53 26V18C53 16.8954 52.1046 16 51 16L31 16ZM29 21L27 22L29 23L29 21Z" clip-rule="evenodd"/><rect width="15.398" height="1" x="32" y="19" fill="#fff"/><rect width="9.239" height="1" x="32" y="24" fill="#fff"/></svg>